<svg width="20" height="20" viewBox="0 0 20 20" fill="none" xmlns="http://www.w3.org/2000/svg">
<path d="M3.33333 10.8333C2.98611 10.8333 2.74306 10.6944 2.60417 10.4167C2.47917 10.1389 2.47917 9.86111 2.60417 9.58333C2.74306 9.30556 2.98611 9.16667 3.33333 9.16667H16.6667C17.0139 9.16667 17.25 9.30556 17.375 9.58333C17.5139 9.86111 17.5139 10.1389 17.375 10.4167C17.25 10.6944 17.0139 10.8333 16.6667 10.8333H3.33333ZM9.16667 3.33333C9.16667 2.98611 9.30556 2.75 9.58333 2.625C9.86111 2.48611 10.1389 2.48611 10.4167 2.625C10.6944 2.75 10.8333 2.98611 10.8333 3.33333V16.6667C10.8333 17.0139 10.6944 17.2569 10.4167 17.3958C10.1389 17.5208 9.86111 17.5208 9.58333 17.3958C9.30556 17.2569 9.16667 17.0139 9.16667 16.6667V3.33333Z" fill="#717171"/>
</svg>
