<svg width="24" height="24" viewBox="0 0 24 24" fill="none" xmlns="http://www.w3.org/2000/svg">
<path d="M17.05 18.5C17.25 18.7 17.3 18.9333 17.2 19.2C17.1167 19.4667 16.9417 19.6417 16.675 19.725C16.4083 19.8083 16.1667 19.7333 15.95 19.5L6.95 9.5C6.75 9.28333 6.7 9.04167 6.8 8.775C6.9 8.50833 7.075 8.34167 7.325 8.275C7.59167 8.19167 7.83333 8.26667 8.05 8.5L17.05 18.5ZM15.95 8.5C16.15 8.26667 16.3833 8.19167 16.65 8.275C16.9333 8.34167 17.125 8.50833 17.225 8.775C17.325 9.025 17.2667 9.26667 17.05 9.5L8.05 19.5C7.86667 19.7167 7.63333 19.7917 7.35 19.725C7.06667 19.6417 6.875 19.475 6.775 19.225C6.675 18.975 6.73333 18.7333 6.95 18.5L15.95 8.5Z" fill="#999999"/>
</svg>
