<svg width="16" height="17" viewBox="0 0 16 17" fill="none" xmlns="http://www.w3.org/2000/svg">
<path d="M12.2 6.03333C12.4 5.83333 12.6111 5.77222 12.8333 5.85C13.0667 5.92778 13.2222 6.08889 13.3 6.33333C13.3778 6.56667 13.3222 6.77778 13.1333 6.96667L8.46667 11.65C8.32222 11.7944 8.16667 11.8667 8 11.8667C7.84444 11.8667 7.68889 11.7944 7.53333 11.65L2.86667 6.96667C2.67778 6.77778 2.62222 6.56667 2.7 6.33333C2.77778 6.1 2.92778 5.94444 3.15 5.86667C3.38333 5.77778 3.6 5.83333 3.8 6.03333L8 10.2167L12.2 6.03333Z" fill="#222222"/>
</svg>
