    <svg width="48" height="48" viewBox="0 0 48 48" fill="none" xmlns="http://www.w3.org/2000/svg">
      <path d="M15.55 41.7C14.75 42.1667 13.9333 42.3 13.1 42.1C12.2667 41.8667 11.6167 41.3833 11.15 40.65C10.7167 39.9167 10.5667 39.0833 10.7 38.15L12.45 28.2C12.45 28.1333 12.45 28.1333 12.45 28.2C12.4833 28.2333 12.5 28.3 12.5 28.4C12.5333 28.5667 12.5667 28.7333 12.6 28.9C12.6667 29.0667 12.7167 29.1667 12.75 29.2L5.5 22.05C4.83333 21.4167 4.48333 20.6833 4.45 19.85C4.41667 18.9833 4.66667 18.2167 5.2 17.55C5.76667 16.8833 6.5 16.5 7.4 16.4L16.85 15C16.6167 15.4 16.4833 15.6167 16.45 15.65L21 6.45C21.4333 5.65 22.0333 5.11666 22.8 4.85C23.6 4.55 24.3833 4.55 25.15 4.85C25.95 5.11666 26.5667 5.65 27 6.45L31.55 15.65C31.3833 15.4167 31.2333 15.1833 31.1 14.95L40.7 16.45C41.6 16.5833 42.3 16.9833 42.8 17.65C43.3333 18.2833 43.5667 19.0167 43.5 19.85C43.4667 20.6833 43.1333 21.4167 42.5 22.05L35.25 29.2C35.15 29.2667 35.1667 29.0833 35.3 28.65C35.4333 28.2167 35.5167 28.0667 35.55 28.2L37.3 38.15C37.4667 39.0833 37.3167 39.9167 36.85 40.65C36.3833 41.35 35.7333 41.8167 34.9 42.05C34.1 42.25 33.2833 42.1333 32.45 41.7L23.4 36.95C23.2667 36.8833 23.3333 36.85 23.6 36.85C23.8667 36.8167 24.1333 36.8167 24.4 36.85C24.6667 36.85 24.7333 36.8833 24.6 36.95L15.55 41.7Z" fill="#FCC900"/>
    </svg>