<svg width="16" height="16" viewBox="0 0 16 16" fill="none" xmlns="http://www.w3.org/2000/svg">
<path d="M2 12.6667C1.72222 12.6667 1.52778 12.5556 1.41667 12.3333C1.31667 12.1111 1.31667 11.8889 1.41667 11.6667C1.52778 11.4444 1.72222 11.3333 2 11.3333H2.66667V6.66667C2.66667 5.7 2.90556 4.81111 3.38333 4C3.86111 3.17778 4.50556 2.52778 5.31667 2.05C6.13889 1.57222 7.03333 1.33333 8 1.33333C8.96667 1.33333 9.85556 1.57222 10.6667 2.05C11.4889 2.52778 12.1389 3.17778 12.6167 4C13.0944 4.81111 13.3333 5.7 13.3333 6.66667V11.3333H14C14.2778 11.3333 14.4667 11.4444 14.5667 11.6667C14.6778 11.8889 14.6778 12.1111 14.5667 12.3333C14.4667 12.5556 14.2778 12.6667 14 12.6667H2ZM8 15.3333C7.7 15.3333 7.42778 15.2444 7.18333 15.0667C6.95 14.8778 6.79444 14.6389 6.71667 14.35C6.63889 14.0611 6.66667 13.7556 6.8 13.4333C6.8 13.4 6.81667 13.3778 6.85 13.3667C6.88333 13.3444 6.91667 13.3333 6.95 13.3333H9.06667C9.08889 13.3333 9.11667 13.3444 9.15 13.3667C9.18333 13.3778 9.20556 13.4 9.21667 13.4333C9.33889 13.7556 9.36111 14.0611 9.28333 14.35C9.20556 14.6389 9.05 14.8778 8.81667 15.0667C8.58333 15.2444 8.31111 15.3333 8 15.3333ZM12 11.3333V6.66667C12 5.91111 11.8278 5.22778 11.4833 4.61667C11.1389 4.00556 10.6611 3.52778 10.05 3.18333C9.43889 2.83889 8.75556 2.66667 8 2.66667C7.24444 2.66667 6.56111 2.83889 5.95 3.18333C5.33889 3.52778 4.86111 4.00556 4.51667 4.61667C4.17222 5.22778 4 5.91111 4 6.66667V11.3333H12Z" fill="#222222"/>
</svg>
