                      <svg
                        width="21"
                        height="20"
                        viewBox="0 0 21 20"
                        fill="none"
                        xmlns="http://www.w3.org/2000/svg"
                      >
                        <path
                          d="M3.5625 18.2083C3.3125 18.2778 3.07639 18.2569 2.85417 18.1458C2.63194 18.0347 2.46528 17.8681 2.35417 17.6458C2.24306 17.4236 2.22222 17.1875 2.29167 16.9375L3.08333 13.7292L13.7083 3.125C14.0417 2.79167 14.4236 2.56944 14.8542 2.45833C15.2847 2.33333 15.7153 2.33333 16.1458 2.45833C16.5764 2.56944 16.9583 2.79167 17.2917 3.125L17.375 3.20833C17.7083 3.54167 17.9306 3.92361 18.0417 4.35417C18.1667 4.78472 18.1667 5.21528 18.0417 5.64583C17.9306 6.07639 17.7083 6.45833 17.375 6.79167L6.77083 17.4167L3.5625 18.2083ZM3.89583 17.375C3.90972 17.3333 3.90972 17.2708 3.89583 17.1875C3.89583 17.1042 3.88194 17 3.85417 16.875C3.82639 16.7361 3.78472 16.5972 3.72917 16.4583L5.89583 15.9167L16.2083 5.625C16.4306 5.40278 16.5417 5.19444 16.5417 5C16.5417 4.80555 16.4306 4.59722 16.2083 4.375L16.125 4.29167C15.9028 4.06944 15.6944 3.95833 15.5 3.95833C15.3056 3.95833 15.0972 4.06944 14.875 4.29167L4.58333 14.6042L3.89583 17.375ZM12.4167 5.58333L13.5833 4.41667L16.0833 6.91667L14.9167 8.08333L12.4167 5.58333Z"
                          fill="white"
                        />
                      </svg>