<svg width="40" height="40" viewBox="0 0 40 40" fill="none" xmlns="http://www.w3.org/2000/svg">
<rect width="40" height="40" rx="20" fill="url(#paint0_linear_288_1116)"/>
<path d="M11.8 19.2C11.4 18.7833 11.1667 18.3167 11.1 17.8C11.05 17.2667 11.1667 16.7833 11.45 16.35C11.75 15.9167 12.175 15.6167 12.725 15.45L25.475 11.675C26.0417 11.5083 26.5833 11.5417 27.1 11.775C27.6333 11.9917 28.0083 12.3667 28.225 12.9C28.4583 13.4167 28.4917 13.9583 28.325 14.525L24.55 27.275C24.3833 27.825 24.0833 28.25 23.65 28.55C23.2167 28.8333 22.7333 28.95 22.2 28.9C21.6833 28.8333 21.2167 28.6 20.8 28.2L11.8 19.2ZM22.775 27.35C22.8917 27.4833 22.9 27.5917 22.8 27.675C22.7167 27.7417 22.6167 27.7583 22.5 27.725C22.3833 27.6917 22.35 27.5917 22.4 27.425L26.65 13.1C26.7 12.9333 26.7833 12.8667 26.9 12.9C27.0167 12.9167 27.0833 12.9833 27.1 13.1C27.1333 13.2167 27.0667 13.3 26.9 13.35L12.575 17.6C12.4083 17.65 12.3083 17.6167 12.275 17.5C12.2417 17.3667 12.2583 17.2583 12.325 17.175C12.4083 17.0917 12.5167 17.1083 12.65 17.225L22.775 27.35ZM16.3 22.3L20.3 18.3C20.5833 18.0167 20.9 17.9333 21.25 18.05C21.6167 18.1667 21.8583 18.4 21.975 18.75C22.0917 19.0833 22 19.4 21.7 19.7L17.7 23.7L16.3 22.3Z" fill="white"/>
<defs>
<linearGradient id="paint0_linear_288_1116" x1="31.5" y1="4.5" x2="7.5" y2="37.5" gradientUnits="userSpaceOnUse">
<stop stop-color="#1F12D4"/>
<stop offset="1" stop-color="#8298FF"/>
</linearGradient>
</defs>
</svg>
