<svg width="110" height="110" viewBox="0 0 110 110" fill="none" xmlns="http://www.w3.org/2000/svg">
<rect width="110" height="110" fill="#FAFAFC"/>
<path d="M55 65C53.2 65 51.5333 64.55 50 63.65C48.4667 62.75 47.25 61.5333 46.35 60C45.45 58.4667 45 56.8 45 55C45 53.2 45.45 51.5333 46.35 50C47.25 48.45 48.4667 47.2333 50 46.35C51.5333 45.45 53.2 45 55 45C56.8 45 58.4667 45.45 60 46.35C61.55 47.2333 62.7667 48.45 63.65 50C64.55 51.5333 65 53.2 65 55C65 56.8 64.55 58.4667 63.65 60C62.7667 61.5333 61.55 62.75 60 63.65C58.4667 64.55 56.8 65 55 65ZM55 63C56.4833 63 57.8333 62.65 59.05 61.95C60.2833 61.25 61.25 60.2917 61.95 59.075C62.65 57.8417 63 56.4833 63 55C63 53.5167 62.65 52.1667 61.95 50.95C61.25 49.7167 60.2833 48.75 59.05 48.05C57.8333 47.35 56.4833 47 55 47C53.5167 47 52.1583 47.35 50.925 48.05C49.7083 48.75 48.75 49.7167 48.05 50.95C47.35 52.1667 47 53.5167 47 55C47 56.4833 47.35 57.8417 48.05 59.075C48.75 60.2917 49.7083 61.25 50.925 61.95C52.1583 62.65 53.5167 63 55 63ZM54 54C54 53.5833 54.1667 53.3 54.5 53.15C54.8333 52.9833 55.1667 52.9833 55.5 53.15C55.8333 53.3 56 53.5833 56 54V60C56 60.4167 55.8333 60.7083 55.5 60.875C55.1667 61.025 54.8333 61.025 54.5 60.875C54.1667 60.7083 54 60.4167 54 60V54ZM56.5 50.5C56.5 50.9167 56.35 51.275 56.05 51.575C55.7667 51.8583 55.4167 52 55 52C54.5833 52 54.225 51.8583 53.925 51.575C53.6417 51.275 53.5 50.9167 53.5 50.5C53.5 50.0833 53.6417 49.7333 53.925 49.45C54.225 49.15 54.5833 49 55 49C55.4167 49 55.7667 49.15 56.05 49.45C56.35 49.7333 56.5 50.0833 56.5 50.5Z" fill="#DEDEDE"/>
</svg>
