<svg width="42" height="32" viewBox="0 0 42 32" fill="none" xmlns="http://www.w3.org/2000/svg">
<path d="M40.7639 6.39995C42.526 11.3746 37.7787 12.7999 34.0963 12.7999C30.4139 12.7999 27.4287 9.93454 27.4287 6.39995C27.4287 2.86536 30.4139 0 34.0963 0C37.7787 0 39.4304 2.63527 40.7639 6.39995Z" fill="#AEEC8B"/>
<path d="M0.379186 6.39995C-1.38293 11.3746 3.36437 12.7999 7.04677 12.7999C10.7292 12.7999 13.7144 9.93454 13.7144 6.39995C13.7144 2.86536 10.7292 0 7.04677 0C3.36437 0 1.7127 2.63527 0.379186 6.39995Z" fill="#AEEC8B"/>
<path d="M6.40015 17.3713C6.40015 9.29215 12.9496 2.74268 21.0288 2.74268C29.108 2.74268 35.6574 9.29214 35.6574 17.3713V29.3399C35.6574 30.8088 34.4666 31.9996 32.9977 31.9996H9.05986C7.59094 31.9996 6.40015 30.8088 6.40015 29.3399V17.3713Z" fill="#C1FD9C"/>
<path d="M16.4498 16.319C16.2891 18.079 15.7036 19.4641 14.3379 19.3395C12.9721 19.2148 12.6471 17.7465 12.8077 15.9865C12.9684 14.2266 13.5539 12.8414 14.9196 12.966C16.2854 13.0907 16.6104 14.559 16.4498 16.319Z" fill="#222222"/>
<path d="M23.7714 17.9817C23.7714 20.7588 23.7714 23.0102 21.0285 23.0102C18.2856 23.0102 18.2856 20.7588 18.2856 17.9817C18.2856 15.2045 19.1999 12.9531 21.0285 12.9531C22.8571 12.9531 23.7714 15.2045 23.7714 17.9817Z" fill="#FCC900"/>
<path d="M29.2498 15.9868C29.4106 17.7468 29.0857 19.2151 27.7199 19.3399C26.3542 19.4646 25.7686 18.0795 25.6078 16.3195C25.447 14.5595 25.7719 13.0912 27.1376 12.9665C28.5034 12.8417 29.089 14.2268 29.2498 15.9868Z" fill="#222222"/>
<path d="M6.40015 24.6855H13.7145H21.0288H28.3431H35.6574V28.9998C35.6574 30.6566 34.3143 31.9998 32.6574 31.9998H9.40014C7.74329 31.9998 6.40015 30.6566 6.40015 28.9998V24.6855Z" fill="#FFFF9A"/>
</svg>
